<?xml version="1.0" encoding="utf-8"?>
<!-- Generator: Adobe Illustrator 25.2.1, SVG Export Plug-In . SVG Version: 6.00 Build 0)  -->
<svg version="1.1" id="Layer_1" xmlns="http://www.w3.org/2000/svg" xmlns:xlink="http://www.w3.org/1999/xlink" x="0px" y="0px"
	 viewBox="0 0 200 200" enable-background="new 0 0 200 200" xml:space="preserve">
<line fill="none" stroke="#B3B3B3" stroke-width="0.25" stroke-miterlimit="10" x1="0" y1="0" x2="200" y2="200"/>
<line fill="none" stroke="#B3B3B3" stroke-width="0.25" stroke-miterlimit="10" x1="0" y1="0" x2="200" y2="200"/>
<g>
	<path fill="none" stroke="#FBB03B" stroke-width="6" stroke-linejoin="round" stroke-miterlimit="10" d="M91,92.3V84h19v10.8
		c0,0-13.6,1.5-13.6,24.2"/>
	<path fill="none" stroke="#FBB03B" stroke-width="6" stroke-linejoin="round" stroke-miterlimit="10" d="M136,92.3V84h19v10.8
		c0,0-13.6,1.5-13.6,24.2"/>
	<path fill="none" stroke="#FBB03B" stroke-width="6" stroke-linejoin="round" stroke-miterlimit="10" d="M44,92.3V84h19v10.8
		c0,0-13.6,1.5-13.6,24.2"/>
	<path fill="none" stroke="#FBB03B" stroke-width="6" stroke-linejoin="round" stroke-miterlimit="10" d="M159.6,138.9H41.4
		c-6.9,0-12.4-5.6-12.4-12.4v-53C29,66.6,34.6,61,41.4,61h118.1c6.9,0,12.4,5.6,12.4,12.4v53C172,133.3,166.4,138.9,159.6,138.9z"/>
	<g>
		
			<line fill="none" stroke="#FBB03B" stroke-width="6" stroke-linejoin="round" stroke-miterlimit="10" x1="124.3" y1="61" x2="124.3" y2="138.9"/>
	</g>
	<g>
		
			<line fill="none" stroke="#FBB03B" stroke-width="6" stroke-linejoin="round" stroke-miterlimit="10" x1="76.7" y1="61" x2="76.7" y2="138.9"/>
	</g>
</g>
</svg>
