<?xml version="1.0" encoding="utf-8"?>
<!-- Generator: Adobe Illustrator 25.2.1, SVG Export Plug-In . SVG Version: 6.00 Build 0)  -->
<svg version="1.1" id="Layer_1" xmlns="http://www.w3.org/2000/svg" xmlns:xlink="http://www.w3.org/1999/xlink" x="0px" y="0px"
	 viewBox="0 0 200 200" enable-background="new 0 0 200 200" xml:space="preserve">
<line fill="none" stroke="#B3B3B3" stroke-width="0.25" stroke-miterlimit="10" x1="200" y1="0" x2="0" y2="200"/>
<path fill="none" stroke="#FBB03B" stroke-width="6" stroke-linejoin="round" stroke-miterlimit="10" d="M29.6,119.8h12.6v37.9H29.6
	V119.8z M117.6,135.5c1.7,0.2,3.4,0.3,5.1,0.3c26.2,0,47.5-21.3,47.5-47.5s-21.3-47.5-47.5-47.5c-21.2,0-39.1,13.9-45.2,33"/>
<path fill="#FBB03B" d="M76.5,81.8l3.7,4.1c2.5,2.8,3.6,6.6,2.8,10.3l-3,15.4h22.7c5.3,0,9.5,4.3,9.5,9.5v12.5
	c0,0.9-0.2,1.8-0.6,2.7l-9.7,20.8c-1.4,3-4.4,4.9-7.6,4.9H58.3c-4.7,0-8.4-3.8-8.4-8.4V116c0-1.5,0.5-2.9,1.5-4L76.5,81.8z
	 M166.1,77.8c0,17.7-14.3,32-32,32c-17.7,0-32-14.3-32-32s14.3-32,32-32C151.8,45.8,166.1,60.1,166.1,77.8z M139.4,69l9.9-10.3
	h-21.6v6h7.5l-4.5,4.6l-1.5,1.6l2,3.8l2.1-0.3c1.3-0.2,5.8,0,7.8,1.8c0.7,0.7,1.1,1.5,1.1,2.6c0,5.7-10.9,7.8-14.7,8l0.4,6
	c7.5-0.5,20.2-4.1,20.2-14c0-2.9-1.1-5.3-3.1-7.1C143.4,70.3,141.3,69.4,139.4,69z"/>
</svg>
