<?xml version="1.0" encoding="utf-8"?>
<!-- Generator: Adobe Illustrator 25.2.1, SVG Export Plug-In . SVG Version: 6.00 Build 0)  -->
<svg version="1.1" id="Layer_1" xmlns="http://www.w3.org/2000/svg" xmlns:xlink="http://www.w3.org/1999/xlink" x="0px" y="0px"
	 viewBox="0 0 200 200" enable-background="new 0 0 200 200" xml:space="preserve">
<line fill="none" stroke="#B3B3B3" stroke-width="0.25" stroke-miterlimit="10" x1="200" y1="0" x2="0" y2="200"/>
<path fill="none" stroke="#FBB03B" stroke-width="6" stroke-linecap="round" stroke-linejoin="round" stroke-miterlimit="10" d="
	M102.8,134.8c3.5-3.5,6.5-7.7,8-12.1c0-0.1,0.8-0.1,0.8,0c1.5,4.4,4.7,8.6,8.2,12.1c12,12.1,31.5,12.1,43.5,0
	c12-12.1,12-31.6,0-43.7c-7.9-8-19.1-10.7-29.2-8.1c11-12.1,10.6-30.9-1-42.6c-12-12.1-31.5-12.1-43.5,0c-11.7,11.7-12,30.5-1,42.6
	c-9.5-2.4-19.9-0.2-27.6,6.6"/>
<path fill="#FBB03B" d="M60.3,96.3c-19.9,0-36,16.1-36,36c0,5.2,1.1,10.2,3.1,14.7c-0.3-1.6-0.5-3.2-0.5-4.8
	c0-13.4,10.9-24.3,24.3-24.3s24.3,10.9,24.3,24.3s-10.9,24.3-24.3,24.3c-1,0-2-0.1-3-0.2c3.8,1.3,7.8,2.1,12.1,2.1
	c19.9,0,36-16.1,36-36S80.2,96.3,60.3,96.3z"/>
<path fill="none" stroke="#FBB03B" stroke-width="6" stroke-linejoin="round" stroke-miterlimit="10" d="M40.5,133.7h13.2l-8.5,8.8
	c0,0,0,0.1,0,0.1c1.2-0.1,11.1-0.5,11.1,6.7c0,8.9-15.8,10-15.8,10"/>
<path fill="none" stroke="#FBB03B" stroke-width="6" stroke-linejoin="round" stroke-miterlimit="10" d="M93.2,168.3h18.1h18.1
	c-12.1,0-18.1-14.1-18.1-26v-20"/>
</svg>
