<?xml version="1.0" encoding="utf-8"?>
<!-- Generator: Adobe Illustrator 25.2.0, SVG Export Plug-In . SVG Version: 6.00 Build 0)  -->
<svg version="1.1" id="Layer_1" xmlns="http://www.w3.org/2000/svg" xmlns:xlink="http://www.w3.org/1999/xlink" x="0px" y="0px"
	 viewBox="0 0 200 200" enable-background="new 0 0 200 200" xml:space="preserve">
<path fill="none" stroke="#FBB03B" stroke-width="6" stroke-linejoin="round" stroke-miterlimit="10" d="M148,43h6.5
	c9.1,0,16.5,7.4,16.5,16.5v95c0,9.1-7.4,16.5-16.5,16.5h-109c-9.1,0-16.5-7.4-16.5-16.5v-95C29,50.4,36.4,43,45.5,43H60"/>
<line fill="none" stroke="#FBB03B" stroke-width="6" stroke-linecap="round" stroke-linejoin="round" stroke-miterlimit="10" x1="60" y1="55" x2="60" y2="29"/>
<line fill="none" stroke="#FBB03B" stroke-width="6" stroke-linecap="round" stroke-linejoin="round" stroke-miterlimit="10" x1="140" y1="55" x2="140" y2="29"/>
<line fill="none" stroke="#FBB03B" stroke-width="6" stroke-linecap="round" stroke-linejoin="round" stroke-miterlimit="10" x1="171" y1="74" x2="40" y2="74"/>
<path fill="none" stroke="#FBB03B" stroke-width="6" stroke-linecap="round" stroke-linejoin="round" stroke-miterlimit="10" d="
	M133,100.8l-37.6,37.6c-2.4,2.4-6.3,2.4-8.7,0L70,121.8"/>
<line fill="none" stroke="#FBB03B" stroke-width="6" stroke-linejoin="round" stroke-miterlimit="10" x1="68" y1="43" x2="140" y2="43"/>
</svg>
