<?xml version="1.0" encoding="utf-8"?>
<!-- Generator: Adobe Illustrator 25.2.1, SVG Export Plug-In . SVG Version: 6.00 Build 0)  -->
<svg version="1.1" id="Layer_1" xmlns="http://www.w3.org/2000/svg" xmlns:xlink="http://www.w3.org/1999/xlink" x="0px" y="0px"
	 viewBox="0 0 200 200" enable-background="new 0 0 200 200" xml:space="preserve">
<line fill="none" stroke="#B3B3B3" stroke-width="0.25" stroke-miterlimit="10" x1="200" y1="0" x2="0" y2="200"/>
<path fill="none" stroke="#FBB03B" stroke-width="6" stroke-linejoin="round" stroke-miterlimit="10" d="M119,168.4
	c0.3-12.3-2-24.8-5.1-34.1c18.6-4.6,32.1-18.2,32.1-34.3c0-7.9-3.2-15.1-8.7-21.1c4.2-9.6-0.5-20.9-0.5-20.9s-13.2-0.1-18.7,8.9
	C112.5,65,106.4,64,100,64c-6.7,0-13.1,1.1-18.9,3.2C75.7,57.9,62.3,58,62.3,58s-5,11.9-0.2,21.6C57,85.4,54,92.4,54,100
	c0,16.1,13.6,29.8,32.2,34.4c-3.1,9.3-5.4,21.8-5.1,34.1C51.1,160.2,29,132.7,29,100c0-39.2,31.8-71,71-71s71,31.8,71,71
	C171,132.6,149,160.1,119,168.4z"/>
<path fill-rule="evenodd" clip-rule="evenodd" fill="none" stroke="#FBB03B" stroke-width="6" stroke-linejoin="round" stroke-miterlimit="10" d="
	M48,132c21,0,12,20,34,20"/>
</svg>
