<?xml version="1.0" encoding="utf-8"?>
<!-- Generator: Adobe Illustrator 25.2.0, SVG Export Plug-In . SVG Version: 6.00 Build 0)  -->
<svg version="1.1" xmlns="http://www.w3.org/2000/svg" xmlns:xlink="http://www.w3.org/1999/xlink" x="0px" y="0px"
	 viewBox="0 0 200 200" enable-background="new 0 0 200 200" xml:space="preserve">
<g id="Layer_2">
	<line fill="none" stroke="#B3B3B3" stroke-width="0.25" stroke-miterlimit="10" x1="200" y1="0" x2="0" y2="200"/>
	<line fill="none" stroke="#B3B3B3" stroke-width="0.25" stroke-miterlimit="10" x1="0" y1="0" x2="200" y2="200"/>
</g>
<g id="Layer_1">
	<g>
		<path fill="none" stroke="#FBB03B" stroke-width="6" stroke-linejoin="round" stroke-miterlimit="10" d="M170.4,160.6
			c0,5.6-4.7,10.1-10.4,10.1H40c-5.8,0-10.4-4.5-10.4-10.1V39.4c0-5.6,4.6-10.1,10.4-10.1H160c5.7,0,10.4,4.6,10.4,10.1L170.4,160.6
			L170.4,160.6z"/>
		<path fill="none" stroke="#FBB03B" stroke-width="6" stroke-linejoin="round" stroke-miterlimit="10" d="M124.5,82.3
			c-11.3,0-16.3,6.2-19.2,10.6v0.2h-0.1c0.1-0.1,0.1-0.1,0.1-0.2v-9.1H84.1c0.3,6,0,63.9,0,63.9h21.3V112c0-1.9,0.1-3.8,0.7-5.2
			c1.5-3.8,5-7.8,10.9-7.8c7.7,0,10.8,5.9,10.8,14.5v34.2h21.3v-36.6C148.9,91.4,138.4,82.3,124.5,82.3z"/>
		<path fill="none" stroke="#FBB03B" stroke-width="6" stroke-linejoin="round" stroke-miterlimit="10" d="M61.8,53
			c-7.3,0-12,4.8-12,11.1c0,6.1,4.6,11.1,11.7,11.1h0.1c7.4,0,12-4.9,12-11.1C73.6,57.8,69.1,53,61.8,53z"/>
		
			<rect x="51" y="83.8" fill="none" stroke="#FBB03B" stroke-width="6" stroke-linejoin="round" stroke-miterlimit="10" width="21.3" height="63.9"/>
	</g>
</g>
</svg>
