<svg xmlns="http://www.w3.org/2000/svg" viewBox="0 0 200 200"><path fill="none" stroke="var(--stroke, #000000)" stroke-width="var(--s-width, 6)" stroke-linejoin="round" stroke-miterlimit="10" d="M170.4 160.6c0 5.6-4.7 10.1-10.4 10.1H40c-5.8 0-10.4-4.5-10.4-10.1V39.4c0-5.6 4.6-10.1 10.4-10.1h120c5.7 0 10.4 4.6 10.4 10.1v121.2h0z"/><path fill="var(--bg, #000000)" stroke="var(--stroke, #000000)" stroke-width="var(--s-width, 6)" stroke-linejoin="round" stroke-miterlimit="10" d="M124.5 82.3c-11.3 0-16.3 6.2-19.2 10.6v.2h-.1c.1-.1.1-.1.1-.2v-9.1H84.1c.3 6 0 63.9 0 63.9h21.3V112c0-1.9.1-3.8.7-5.2 1.5-3.8 5-7.8 10.9-7.8 7.7 0 10.8 5.9 10.8 14.5v34.2h21.3v-36.6c-.2-19.7-10.7-28.8-24.6-28.8zM61.8 53c-7.3 0-12 4.8-12 11.1 0 6.1 4.6 11.1 11.7 11.1h.1c7.4 0 12-4.9 12-11.1 0-6.3-4.5-11.1-11.8-11.1zM51 83.8h21.3v63.9H51z"/></svg>