<?xml version="1.0" encoding="utf-8"?>
<!-- Generator: Adobe Illustrator 25.2.1, SVG Export Plug-In . SVG Version: 6.00 Build 0)  -->
<svg version="1.1" id="Layer_1" xmlns="http://www.w3.org/2000/svg" xmlns:xlink="http://www.w3.org/1999/xlink" x="0px" y="0px"
	 viewBox="0 0 200 200" enable-background="new 0 0 200 200" xml:space="preserve">
<line fill="none" stroke="#B3B3B3" stroke-width="0.25" stroke-miterlimit="10" x1="200" y1="0" x2="0" y2="200"/>
<path fill="none" stroke="#FBB03B" stroke-width="6" stroke-linecap="round" stroke-linejoin="round" stroke-miterlimit="10" d="
	M140.6,84.9c3.9,7.8,6.2,16.7,6.2,26.1c0,32.1-26,58.1-58.1,58.1s-58.1-26-58.1-58.1c0-23.9,14.4-44.4,35-53.3"/>
<path fill="#E6E6E6" d="M164.7,27.9H82.2c-4.2,0-7.6,3.4-7.6,7.6v32.8c0,4.2,3.4,7.6,7.6,7.6h82.5c4.2,0,7.6-3.4,7.6-7.6V35.6
	C172.3,31.4,168.9,27.9,164.7,27.9z M108.3,65c0,1.3-0.9,2.5-2.2,2.9c-0.3,0.1-0.5,0.1-0.8,0.1c-1,0-2-0.5-2.6-1.4l-11-17.8V65
	c0,1.7-1.3,3-3,3s-3-1.3-3-3V38.2c0-1.3,0.9-2.5,2.2-2.9c1.3-0.4,2.7,0.2,3.4,1.3l11,17.8V38.2c0-1.7,1.3-3,3-3s3,1.3,3,3V65z
	 M122.6,48.6c1.7,0,3,1.3,3,3s-1.3,3-3,3H117V62h8.8c1.7,0,3,1.3,3,3c0,1.7-1.3,3-3,3H114c-1.7,0-3-1.3-3-3V38.2c0-1.7,1.3-3,3-3
	h11.8c1.7,0,3,1.3,3,3s-1.3,3-3,3H117v7.4H122.6z M166.8,38.8l-6,26.8c-0.3,1.3-1.3,2.2-2.6,2.3c-1.3,0.1-2.5-0.6-3-1.8l-6.4-14.6
	l-6.5,14.6c-0.5,1.1-1.6,1.8-2.7,1.8c-0.1,0-0.2,0-0.3,0c-1.3-0.1-2.3-1.1-2.6-2.3l-5.8-26.8c-0.4-1.6,0.7-3.2,2.3-3.6
	c1.6-0.3,3.2,0.7,3.6,2.3l3.9,17.9L146,43c0.5-1.1,1.6-1.8,2.7-1.8c0,0,0,0,0,0c1.2,0,2.3,0.7,2.7,1.8l5.4,12.4l4-17.9
	c0.4-1.6,2-2.6,3.6-2.3C166.1,35.6,167.2,37.2,166.8,38.8z M66.7,117.4c0-3.4,2.7-6.1,6.1-6.1s6.1,2.7,6.1,6.1s-2.7,6.1-6.1,6.1
	S66.7,120.8,66.7,117.4z M81.3,138.1c0,4.7-3.8,8.5-8.5,8.5s-8.5-3.8-8.5-8.5s3.8-8.5,8.5-8.5S81.3,133.4,81.3,138.1z M74.2,87.7
	c-21.6,0-39.1,17.5-39.1,39.1c0,21.6,17.5,39.1,39.1,39.1c21.6,0,39.1-17.5,39.1-39.1C113.3,105.2,95.8,87.7,74.2,87.7z M72.8,152.6
	c-8,0-14.5-6.5-14.5-14.5c0-4.9,2.4-9.2,6.2-11.8c-2.3-2.2-3.8-5.3-3.8-8.8c0-6.7,5.4-12.1,12.1-12.1c6.7,0,12.1,5.4,12.1,12.1
	c0,3.5-1.5,6.6-3.8,8.8c3.7,2.6,6.2,7,6.2,11.8C87.3,146,80.8,152.6,72.8,152.6z"/>
</svg>
