<?xml version="1.0" encoding="utf-8"?>
<!-- Generator: Adobe Illustrator 25.2.1, SVG Export Plug-In . SVG Version: 6.00 Build 0)  -->
<svg version="1.1" id="Layer_1" xmlns="http://www.w3.org/2000/svg" xmlns:xlink="http://www.w3.org/1999/xlink" x="0px" y="0px"
	 viewBox="0 0 200 200" enable-background="new 0 0 200 200" xml:space="preserve">
<line fill="none" stroke="#B3B3B3" stroke-width="0.25" stroke-miterlimit="10" x1="200" y1="0" x2="0" y2="200"/>
<path fill="#FFFFFF" d="M163.1,88.9H63.7c-5.1,0-9.2-4.1-9.2-9.2V40.1c0-5.1,4.1-9.2,9.2-9.2h99.5c5.1,0,9.2,4.1,9.2,9.2v39.6
	C172.3,84.7,168.2,88.9,163.1,88.9z"/>
<path fill="none" stroke="#FBB03B" stroke-width="6" stroke-linecap="round" stroke-linejoin="round" stroke-miterlimit="10" d="
	M116.2,95.1c4.5,7.1,7.1,15.6,7.1,24.7c0,25.6-20.7,46.3-46.3,46.3s-46.3-20.7-46.3-46.3c0-13.9,6.1-26.3,15.7-34.8 M71.5,75.6V43.2
	l20,32.3V43.2 M116.2,43.2H102v32.3h14.3 M112.4,59.4H102 M125.7,43.2v32.3l17-25.1v25.1l19.2-32.3"/>
<circle fill="#FBB03B" cx="65.3" cy="132.5" r="31.2"/>
<path fill="none" stroke="#FFFFFF" stroke-width="6" stroke-linejoin="round" stroke-miterlimit="10" d="M51.5,121.6h17L57.5,133
	c0,0,0,0.1,0,0.1c1.5-0.2,14.3-0.7,14.3,8.6c0,11.5-20.4,12.9-20.4,12.9"/>
</svg>
