<?xml version="1.0" encoding="utf-8"?>
<!-- Generator: Adobe Illustrator 25.2.0, SVG Export Plug-In . SVG Version: 6.00 Build 0)  -->
<svg version="1.1" xmlns="http://www.w3.org/2000/svg" xmlns:xlink="http://www.w3.org/1999/xlink" x="0px" y="0px"
	 viewBox="0 0 200 200" enable-background="new 0 0 200 200" xml:space="preserve">
<g id="Layer_1">
</g>
<g id="Layer_2">
	<line fill="none" stroke="#B3B3B3" stroke-width="0.25" stroke-miterlimit="10" x1="200" y1="0" x2="0" y2="200"/>
	<line fill="none" stroke="#B3B3B3" stroke-width="0.25" stroke-miterlimit="10" x1="0" y1="0" x2="200" y2="200"/>
	<line fill="none" stroke="#B3B3B3" stroke-width="0.25" stroke-miterlimit="10" x1="200" y1="0" x2="0" y2="200"/>
	<line fill="none" stroke="#B3B3B3" stroke-width="0.25" stroke-miterlimit="10" x1="0" y1="0" x2="200" y2="200"/>
	
		<path id="phone" fill-rule="evenodd" clip-rule="evenodd" fill="none" stroke="#FBB03B" stroke-width="6" stroke-linejoin="round" stroke-miterlimit="10" d="
		M70,93.3c7.8,15.6,21.1,28.3,36.7,36.7l12.2-12.2c1.7-1.7,3.9-2.2,5.6-1.1c6.1,2.2,12.8,3.3,20,3.3c3.3,0,5.6,2.2,5.6,5.6v18.9
		c0,3.3-2.2,5.6-5.6,5.6C92.2,150,50,107.8,50,55.6c0-3.3,2.2-5.6,5.6-5.6H75c3.3,0,5.6,2.2,5.6,5.6c0,6.7,1.1,13.3,3.3,20
		c0.6,1.7,0,3.9-1.1,5.6L70,93.3L70,93.3z"/>
</g>
</svg>
