<?xml version="1.0" encoding="utf-8"?>
<!-- Generator: Adobe Illustrator 25.2.1, SVG Export Plug-In . SVG Version: 6.00 Build 0)  -->
<svg version="1.1" id="Layer_1" xmlns="http://www.w3.org/2000/svg" xmlns:xlink="http://www.w3.org/1999/xlink" x="0px" y="0px"
	 viewBox="0 0 200 200" enable-background="new 0 0 200 200" xml:space="preserve">
<line fill="none" stroke="#B3B3B3" stroke-width="0.25" stroke-miterlimit="10" x1="200.4" y1="-0.2" x2="0.4" y2="199.8"/>
<circle fill="none" stroke="#FBB03B" stroke-width="6" stroke-linejoin="round" stroke-miterlimit="10" cx="56.4" cy="143.3" r="15"/>
<path fill="none" stroke="#FBB03B" stroke-width="6" stroke-linejoin="round" stroke-miterlimit="10" d="M101.4,157.8
	c-8,0-14.5-6.5-14.5-14.5c0-16.8-13.7-30.5-30.5-30.5c-8,0-14.5-6.5-14.5-14.5s6.5-14.5,14.5-14.5c32.8,0,59.5,26.7,59.5,59.5
	C115.9,151.3,109.4,157.8,101.4,157.8z"/>
<path fill="none" stroke="#FBB03B" stroke-width="6" stroke-linejoin="round" stroke-miterlimit="10" d="M147.4,157.8
	c-8,0-14.5-6.5-14.5-14.5c0-42.2-34.3-76.5-76.5-76.5c-8,0-14.5-6.5-14.5-14.5s6.5-14.5,14.5-14.5c58.2,0,105.5,47.3,105.5,105.5
	C161.9,151.3,155.4,157.8,147.4,157.8z"/>
</svg>
