<svg xmlns="http://www.w3.org/2000/svg" viewBox="0 0 200 200">
<circle fill="var(--bg, #000000)" stroke="var(--stroke, #000000)" stroke-width="var(--s-width, 6)" stroke-linejoin="round" stroke-miterlimit="10" cx="56.4" cy="143.3" r="15"/>
<path fill="var(--bg, #000000)" stroke="var(--stroke, #000000)" stroke-width="var(--s-width, 6)" stroke-linejoin="round" stroke-miterlimit="10" d="M101.4,157.8c-8,0-14.5-6.5-14.5-14.5c0-16.8-13.7-30.5-30.5-30.5c-8,0-14.5-6.5-14.5-14.5s6.5-14.5,14.5-14.5c32.8,0,59.5,26.7,59.5,59.5C115.9,151.3,109.4,157.8,101.4,157.8z"/>
<path fill="var(--bg, #000000)" stroke="var(--stroke, #000000)" stroke-width="var(--s-width, 6)" stroke-linejoin="round" stroke-miterlimit="10" d="M147.4,157.8c-8,0-14.5-6.5-14.5-14.5c0-42.2-34.3-76.5-76.5-76.5c-8,0-14.5-6.5-14.5-14.5s6.5-14.5,14.5-14.5c58.2,0,105.5,47.3,105.5,105.5C161.9,151.3,155.4,157.8,147.4,157.8z"/>
</svg>
