<?xml version="1.0" encoding="utf-8"?>
<!-- Generator: Adobe Illustrator 25.2.0, SVG Export Plug-In . SVG Version: 6.00 Build 0)  -->
<svg version="1.1" xmlns="http://www.w3.org/2000/svg" xmlns:xlink="http://www.w3.org/1999/xlink" x="0px" y="0px"
	 viewBox="0 0 200 200" enable-background="new 0 0 200 200" xml:space="preserve">
<g id="Layer_2">
	<line fill="none" stroke="#B3B3B3" stroke-width="0.25" stroke-miterlimit="10" x1="200" y1="0" x2="0" y2="200"/>
	<line fill="none" stroke="#B3B3B3" stroke-width="0.25" stroke-miterlimit="10" x1="0" y1="0" x2="200" y2="200"/>
</g>
<g id="Layer_1">
	<path fill="none" stroke="#FBB03B" stroke-width="6" stroke-linejoin="round" stroke-miterlimit="10" d="M158.2,63.9
		c-4.3,1.9-8.9,3.2-13.7,3.8c4.9-3,8.7-7.6,10.5-13.2c-4.6,2.7-9.7,4.7-15.2,5.8c-4.4-4.6-10.6-7.5-17.4-7.5
		c-13.2,0-23.9,10.7-23.9,23.9c0,1.9,0.2,3.7,0.6,5.4c-19.9-1-37.5-10.5-49.3-25c-2.1,3.5-3.2,7.6-3.2,12c0,8.3,4.2,15.6,10.6,19.9
		c-3.9-0.1-7.6-1.2-10.8-3c0,0.1,0,0.2,0,0.3c0,11.6,8.2,21.2,19.2,23.4c-2,0.5-4.1,0.8-6.3,0.8c-1.5,0-3-0.1-4.5-0.4
		c3,9.5,11.9,16.4,22.3,16.6c-8.2,6.4-18.5,10.2-29.7,10.2c-1.9,0-3.8-0.1-5.7-0.3c10.6,6.8,23.1,10.7,36.6,10.7c44,0,68-36.4,68-68
		c0-1,0-2.1-0.1-3.1C151,72.9,155,68.7,158.2,63.9z"/>
</g>
</svg>
