<?xml version="1.0" encoding="utf-8"?>
<!-- Generator: Adobe Illustrator 25.2.1, SVG Export Plug-In . SVG Version: 6.00 Build 0)  -->
<svg version="1.1" id="Layer_1" xmlns="http://www.w3.org/2000/svg" xmlns:xlink="http://www.w3.org/1999/xlink" x="0px" y="0px"
	 viewBox="0 0 200 200" enable-background="new 0 0 200 200" xml:space="preserve">
<line fill="none" stroke="#B3B3B3" stroke-width="0.25" stroke-miterlimit="10" x1="0" y1="0" x2="200" y2="200"/>
<g>
	<path fill="none" stroke="#FBB03B" stroke-width="6" stroke-linejoin="round" stroke-miterlimit="10" d="M91,92.3V84h19v10.8
		c0,0-13.6,1.5-13.6,24.2"/>
	<path fill="none" stroke="#FBB03B" stroke-width="6" stroke-linejoin="round" stroke-miterlimit="10" d="M144.9,92.3V84h19v10.8
		c0,0-13.6,1.5-13.6,24.2"/>
	<path fill="none" stroke="#FBB03B" stroke-width="6" stroke-linejoin="round" stroke-miterlimit="10" d="M35.9,92.3V84h19v10.8
		c0,0-13.6,1.5-13.6,24.2"/>
	<path fill="none" stroke="#FBB03B" stroke-width="6" stroke-linejoin="round" stroke-miterlimit="10" d="M168.5,150.9H31.4
		c-8.5,0-15.4-6.9-15.4-15.4V64.4C16,55.9,22.9,49,31.4,49h137.1c8.5,0,15.4,6.9,15.4,15.4v71.1C183.9,144,177,150.9,168.5,150.9z"
		/>
	<g>
		
			<line fill="none" stroke="#FBB03B" stroke-width="6" stroke-linejoin="round" stroke-miterlimit="10" x1="127.9" y1="49" x2="127.9" y2="150.9"/>
	</g>
	<g>
		
			<line fill="none" stroke="#FBB03B" stroke-width="6" stroke-linejoin="round" stroke-miterlimit="10" x1="72.9" y1="49" x2="72.9" y2="150.9"/>
	</g>
</g>
</svg>
