<?xml version="1.0" encoding="utf-8"?>
<!-- Generator: Adobe Illustrator 25.2.1, SVG Export Plug-In . SVG Version: 6.00 Build 0)  -->
<svg version="1.1" id="Layer_1" xmlns="http://www.w3.org/2000/svg" xmlns:xlink="http://www.w3.org/1999/xlink" x="0px" y="0px" viewBox="0 0 200 200" enable-background="new 0 0 200 200" xml:space="preserve">
<line fill="none" stroke="#B3B3B3" stroke-width="0.25" stroke-miterlimit="10" x1="200" y1="0" x2="0" y2="200"/>
<path fill="none" stroke="#FBB03B" stroke-width="6" stroke-linejoin="round" stroke-miterlimit="10" d="M89,88.3V80h25v10.8c0,0-17,7.5-17,30.2"/>
<path fill="none" stroke="#FBB03B" stroke-width="6" stroke-linejoin="round" stroke-miterlimit="10" d="M142.9,88.3V80h25v10.8c0,0-17,7.5-17,30.2"/>
<path fill="none" stroke="#FBB03B" stroke-width="6" stroke-linejoin="round" stroke-miterlimit="10" d="M33.9,88.3V80h25v10.8c0,0-17,7.5-17,30.2"/>
<path fill="none" stroke="#FBB03B" stroke-width="6" stroke-linejoin="round" stroke-miterlimit="10" d="M168.6,149.9H31.3c-8.4,0-15.3-6.8-15.3-15.3V65.3C16,56.8,22.8,50,31.3,50h137.4c8.4,0,15.3,6.8,15.3,15.3v69.4C183.9,143.1,177,149.9,168.6,149.9z"/>
<line fill="none" stroke="#FBB03B" stroke-width="6" stroke-linejoin="round" stroke-miterlimit="10" x1="127.9" y1="49" x2="127.9" y2="150.9"/>
<line fill="none" stroke="#FBB03B" stroke-width="6" stroke-linejoin="round" stroke-miterlimit="10" x1="72.9" y1="49" x2="72.9" y2="150.9"/>
</svg>
