<?xml version="1.0" encoding="utf-8"?>
<!-- Generator: Adobe Illustrator 25.2.0, SVG Export Plug-In . SVG Version: 6.00 Build 0)  -->
<svg version="1.1" xmlns="http://www.w3.org/2000/svg" xmlns:xlink="http://www.w3.org/1999/xlink" x="0px" y="0px"
	 viewBox="0 0 200 200" enable-background="new 0 0 200 200" xml:space="preserve">
<g id="Layer_2">
	<line fill="none" stroke="#B3B3B3" stroke-width="0.25" stroke-miterlimit="10" x1="200" y1="0" x2="0" y2="200"/>
	<line fill="none" stroke="#B3B3B3" stroke-width="0.25" stroke-miterlimit="10" x1="0" y1="0" x2="200" y2="200"/>
</g>
<g id="Layer_1">
	<g>
		
			<circle fill="none" stroke="#FBB03B" stroke-width="6" stroke-linejoin="round" stroke-miterlimit="10" cx="100" cy="100.1" r="70.7"/>
		
			<ellipse fill="none" stroke="#FBB03B" stroke-width="6" stroke-linejoin="round" stroke-miterlimit="10" cx="100" cy="99.9" rx="37" ry="70.7"/>
		<path fill="none" stroke="#FBB03B" stroke-width="6" stroke-linejoin="round" stroke-miterlimit="10" d="M155,55.6
			c-13,9.9-32.8,16.3-54.9,16.3s-42-6.4-54.9-16.3"/>
		<path fill="none" stroke="#FBB03B" stroke-width="6" stroke-linejoin="round" stroke-miterlimit="10" d="M45.1,144.2
			c13-9.9,32.8-16.3,54.9-16.3s42,6.4,54.9,16.3"/>
		
			<line fill="none" stroke="#FBB03B" stroke-width="6" stroke-linejoin="round" stroke-miterlimit="10" x1="42" y1="99.9" x2="158" y2="99.9"/>
		
			<line fill="none" stroke="#FBB03B" stroke-width="6" stroke-linejoin="round" stroke-miterlimit="10" x1="42" y1="99.9" x2="171" y2="99.9"/>
		
			<line fill="none" stroke="#FBB03B" stroke-width="6" stroke-linejoin="round" stroke-miterlimit="10" x1="29" y1="99.9" x2="171" y2="99.9"/>
		
			<line fill="none" stroke="#FBB03B" stroke-width="6" stroke-linejoin="round" stroke-miterlimit="10" x1="100" y1="41.9" x2="100" y2="157.9"/>
		
			<line fill="none" stroke="#FBB03B" stroke-width="6" stroke-linejoin="round" stroke-miterlimit="10" x1="100" y1="41.9" x2="100" y2="170.9"/>
		
			<line fill="none" stroke="#FBB03B" stroke-width="6" stroke-linejoin="round" stroke-miterlimit="10" x1="100" y1="28.9" x2="100" y2="170.9"/>
	</g>
</g>
</svg>
