<svg xmlns="http://www.w3.org/2000/svg" viewBox="0 0 200 200"><path fill-rule="evenodd" clip-rule="evenodd" fill="var(--bg, #000000)" stroke="var(--stroke, #000000)" stroke-width="var(--s-width, 6)" stroke-linejoin="round" stroke-miterlimit="10" d="M70 93.3c7.8 15.6 21.1 28.3 36.7 36.7l12.2-12.2c1.7-1.7 3.9-2.2 5.6-1.1 6.1 2.2 12.8 3.3 20 3.3 3.3 0 5.6 2.2 5.6 5.6v18.9c0 3.3-2.2 5.6-5.6 5.6C92.2 150 50 107.8 50 55.6c0-3.3 2.2-5.6 5.6-5.6H75c3.3 0 5.6 2.2 5.6 5.6 0 6.7 1.1 13.3 3.3 20 .6 1.7 0 3.9-1.1 5.6L70 93.3h0z"/></svg>