<svg viewBox="0 0 200 200">
<path fill="none" stroke="var(--stroke, currentColor)" stroke-width="var(--s-width, 6)" stroke-linecap="round" stroke-linejoin="round" stroke-miterlimit="10" d="M153.4,61.8C135.9,48.6,119.3,49,119.3,49l-1.7,1.9c20.6,6.3,30.2,21.4,30.2,21.4C133.1,64.2,120,60,100,60c-24.7,0-50,12.3-50,12.3s10.1-15.5,31.9-21.9L80.7,49c0,0-16.6-0.4-34.1,12.7c0,0-17.5,31.7-17.5,70.8c0,0,10.2,17.6,37,18.5c0,0,4.5-5.5,8.1-10.1C58.8,136.3,53,126.6,53,126.6s23.1,8.2,46.7,8.6c22.5,0.4,45.5-6.9,48-8.5c0,0-6.1,10-22,14.4c3.6,4.6,8,9.8,8,9.8c26.8-0.8,37.2-18.5,37.2-18.5C170.9,93.4,153.4,61.8,153.4,61.8z M77.3,121.2c-6.8,0-12.4-6.1-12.4-13.5c0-7.4,5.5-13.5,12.4-13.5c6.9,0,12.5,6.1,12.4,13.5C89.7,115.2,84.2,121.2,77.3,121.2z M121.6,121.2c-6.8,0-12.4-6.1-12.4-13.5c0-7.4,5.5-13.5,12.4-13.5s12.4,6.1,12.4,13.5C134,115.2,128.5,121.2,121.6,121.2z"/>
</svg>
