<svg viewBox="0 0 200 200">
<path fill="var(--primary, currentColor)" d="M100.1,69.9c-17.2,0-31.2,14-31.2,31.2s14,31.2,31.2,31.2s31.2-14,31.2-31.2S117.4,69.9,100.1,69.9z M90.8,122l-0.4-6c0.2,0,17.6-1.5,17.6-9.9c0-1.5-0.5-2.6-1.4-3.5c-2.7-2.4-8.5-2.3-9.5-2.2c-1.3,0.2-2.6-0.5-3.1-1.7c-0.6-1.1-0.3-2.6,0.6-3.5l6-6.3h-9.9v-6h17c1.2,0,2.3,0.7,2.8,1.8c0.5,1.1,0.2,2.4-0.6,3.3l-6.5,6.7c2.5,0.5,5.2,1.4,7.3,3.3c2.3,2,3.5,4.8,3.5,8C114,120.2,91.8,121.9,90.8,122z"/>
<circle fill="none" stroke="var(--secondary, currentColor)" stroke-width="var(--s-width, 6)" stroke-linejoin="round" stroke-miterlimit="10" cx="100.5" cy="37.1" r="10.3"/>
<circle fill="none" stroke="var(--secondary, currentColor)" stroke-width="var(--s-width, 6)" stroke-linejoin="round" stroke-miterlimit="10" cx="100.5" cy="162.9" r="10.3"/>
<circle fill="none" stroke="var(--secondary, currentColor)" stroke-width="var(--s-width, 6)" stroke-linejoin="round" stroke-miterlimit="10" cx="156.7" cy="68.3" r="10.3"/>
<circle fill="none" stroke="var(--secondary, currentColor)" stroke-width="var(--s-width, 6)" stroke-linejoin="round" stroke-miterlimit="10" cx="43.3" cy="130.3" r="10.3"/>
<circle fill="none" stroke="var(--secondary, currentColor)" stroke-width="var(--s-width, 6)" stroke-linejoin="round" stroke-miterlimit="10" cx="156.7" cy="131.7" r="10.3"/>
<circle fill="none" stroke="var(--secondary, currentColor)" stroke-width="var(--s-width, 6)" stroke-linejoin="round" stroke-miterlimit="10" cx="43.7" cy="68.3" r="10.3"/>
<line stroke="var(--secondary, currentColor)" stroke-width="var(--s-width, 6)" stroke-linejoin="round" stroke-miterlimit="10" x1="91.4" y1="41.9" x2="52.7" y2="63.3"/>
<line stroke="var(--secondary, currentColor)" stroke-width="var(--s-width, 6)" stroke-linejoin="round" stroke-miterlimit="10" x1="42.9" y1="120" x2="42.9" y2="78.5"/>
<line stroke="var(--secondary, currentColor)" stroke-width="var(--s-width, 6)" stroke-linejoin="round" stroke-miterlimit="10" x1="109.7" y1="158.5" x2="148.1" y2="137.2"/>
<line stroke="var(--secondary, currentColor)" stroke-width="var(--s-width, 6)" stroke-linejoin="round" stroke-miterlimit="10" x1="109.4" y1="42.2" x2="147.7" y2="63.5"/>
<line stroke="var(--secondary, currentColor)" stroke-width="var(--s-width, 6)" stroke-linejoin="round" stroke-miterlimit="10" x1="51.2" y1="136.7" x2="91.1" y2="158.8"/>
<line stroke="var(--secondary, currentColor)" stroke-width="var(--s-width, 6)" stroke-linejoin="round" stroke-miterlimit="10" x1="158" y1="78" x2="158" y2="121"/>
</svg>
