<svg viewBox="0 0 200 200">
<path fill="var(--primary, currentColor)" d="M100,64c-19.9,0-36,16.1-36,36c0,19.9,16.1,36,36,36s36-16.1,36-36C136,80.1,119.9,64,100,64z M88.5,121.9l-0.4-6c0.2,0,20.6-1.8,20.6-11.8c0-1.9-0.6-3.2-1.8-4.3c-3.3-2.9-10-2.8-11.2-2.6c-1.3,0.2-2.6-0.5-3.1-1.7c-0.6-1.1-0.4-2.5,0.5-3.5l7.7-8H88.3v-6h19.5c1.2,0,2.3,0.7,2.8,1.8c0.5,1.1,0.2,2.4-0.6,3.3l-8,8.4c3,0.5,6.4,1.5,9,3.8c2.5,2.2,3.8,5.3,3.8,8.8C114.7,119.9,89.6,121.8,88.5,121.9z"/>
<path fill="none" stroke="var(--secondary, currentColor)" stroke-width="var(--s-width, 6)" stroke-linejoin="round" stroke-miterlimit="10" d="M166.3,109.5c0.4-3.1,0.7-6.3,0.7-9.5c0-3.2-0.2-6.4-0.7-9.5l-18.4-2.4c-1.2-4.9-3.1-9.5-5.7-13.7l11.3-14.7c-3.8-5.1-8.3-9.6-13.4-13.4l-14.7,11.3c-4.2-2.5-8.8-4.5-13.7-5.7l-2.4-18.4c-3.1-0.4-6.3-0.7-9.5-0.7c-3.2,0-6.4,0.2-9.5,0.7l-2.4,18.4c-4.9,1.2-9.5,3.1-13.7,5.7L59.8,46.4c-5.1,3.8-9.6,8.3-13.4,13.4l11.3,14.7c-2.5,4.2-4.5,8.8-5.7,13.7l-18.4,2.4c-0.4,3.1-0.7,6.3-0.7,9.5c0,3.2,0.2,6.4,0.7,9.5l18.4,2.4c1.2,4.9,3.1,9.5,5.7,13.7l-11.3,14.7c3.8,5.1,8.3,9.6,13.4,13.4l14.7-11.3c4.2,2.5,8.8,4.5,13.7,5.7l2.4,18.4c3.1,0.4,6.3,0.7,9.5,0.7c3.2,0,6.4-0.2,9.5-0.7l2.4-18.4c4.9-1.2,9.5-3.1,13.7-5.7l14.7,11.3c5.1-3.8,9.6-8.3,13.4-13.4l-11.3-14.7c2.5-4.2,4.5-8.8,5.7-13.7L166.3,109.5z"/>
</svg>
