<svg viewBox="0 0 200 200">
<path fill="none" stroke="var(--secondary, currentColor)" stroke-width="var(--s-width, 6)" stroke-linecap="round" stroke-linejoin="round" stroke-miterlimit="10" d="M116.2,95.1c4.5,7.1,7.1,15.6,7.1,24.7c0,25.6-20.7,46.3-46.3,46.3s-46.3-20.7-46.3-46.3c0-13.9,6.1-26.3,15.7-34.8"/>
<path fill="var(--primary, currentColor)" d="M65.3,101.3c-17.2,0-31.2,14-31.2,31.2s14,31.2,31.2,31.2s31.2-14,31.2-31.2S82.5,101.3,65.3,101.3z M51.7,157.5l-0.4-6c0.2,0,17.6-1.5,17.6-9.9c0-1.5-0.5-2.6-1.4-3.5c-2.7-2.4-8.5-2.3-9.5-2.2c-1.3,0.2-2.6-0.5-3.1-1.7c-0.6-1.1-0.3-2.6,0.6-3.5l6-6.3h-9.9v-6h17c1.2,0,2.3,0.7,2.8,1.8c0.5,1.1,0.2,2.4-0.6,3.3l-6.5,6.7c2.5,0.5,5.2,1.4,7.3,3.3c2.3,2,3.5,4.8,3.5,8C74.9,155.7,52.6,157.5,51.7,157.5z"/>
<path fill="var(--primary, currentColor)" d="M163.1,30.9H63.7c-5.1,0-9.2,4.1-9.2,9.2v39.6c0,5.1,4.1,9.2,9.2,9.2h99.5c5.1,0,9.2-4.1,9.2-9.2V40.1C172.3,35,168.2,30.9,163.1,30.9z M94.5,75.6c0,1.3-0.9,2.5-2.2,2.9c-0.3,0.1-0.5,0.1-0.8,0.1c-1,0-2-0.5-2.6-1.4L74.5,53.8v21.8c0,1.7-1.3,3-3,3s-3-1.3-3-3V43.2c0-1.3,0.9-2.5,2.2-2.9c1.3-0.4,2.7,0.2,3.4,1.3L88.5,65V43.2c0-1.7,1.3-3,3-3s3,1.3,3,3V75.6z M112.4,56.4c1.7,0,3,1.3,3,3s-1.3,3-3,3H105v10.2h11.3c1.7,0,3,1.3,3,3s-1.3,3-3,3H102c-1.7,0-3-1.3-3-3V43.2c0-1.7,1.3-3,3-3h14.3c1.7,0,3,1.3,3,3s-1.3,3-3,3H105v10.2H112.4z M165,43.9l-7.2,32.3c-0.3,1.3-1.3,2.2-2.6,2.3c-1.3,0.1-2.5-0.6-3-1.8l-8.2-18.8l-8.4,18.9c-0.5,1.1-1.6,1.8-2.7,1.8c-0.1,0-0.2,0-0.3,0c-1.3-0.1-2.3-1.1-2.6-2.3l-7-32.3c-0.4-1.6,0.7-3.2,2.3-3.6c1.6-0.4,3.2,0.7,3.6,2.3l5.1,23.4l7.5-16.7c0.5-1.1,1.6-1.8,2.7-1.8c0,0,0,0,0,0c1.2,0,2.3,0.7,2.7,1.8L154,66l5.2-23.4c0.4-1.6,2-2.6,3.6-2.3C164.4,40.7,165.4,42.3,165,43.9z"/>
</svg>