<svg viewBox="0 0 200 200">
<path fill="none" stroke="var(--secondary, currentColor)" stroke-width="var(--s-width, 6)" stroke-linecap="round" stroke-linejoin="round" stroke-miterlimit="10" d="M68.7,61.7c-13.7,0-30.4,11-38.1-1c0,7.3,0,43.2,0,43.2h11.9c0,0-3-23.5,16.3-18.4C78,90.7,88.9,86,88.9,86S50.4,121.1,50.4,169h33c0,0,2.5-47.8,23.5-84.1"/>
<path fill="var(--primary, currentColor)" d="M164.7,28H82.2c-4.2,0-7.6,3.4-7.6,7.6v32.8c0,4.2,3.4,7.6,7.6,7.6h82.5c4.2,0,7.6-3.4,7.6-7.6V35.6C172.3,31.4,168.9,28,164.7,28z M108.3,65c0,1.3-0.9,2.5-2.2,2.9c-0.3,0.1-0.5,0.1-0.8,0.1c-1,0-2-0.5-2.6-1.4l-11-17.8V65c0,1.7-1.3,3-3,3s-3-1.3-3-3V38.2c0-1.3,0.9-2.5,2.2-2.9c1.3-0.4,2.7,0.2,3.4,1.3l11,17.8V38.2c0-1.7,1.3-3,3-3s3,1.3,3,3V65z M122.6,48.6c1.7,0,3,1.3,3,3s-1.3,3-3,3H117V62h8.8c1.7,0,3,1.3,3,3c0,1.7-1.3,3-3,3H114c-1.7,0-3-1.3-3-3V38.2c0-1.7,1.3-3,3-3h11.8c1.7,0,3,1.3,3,3s-1.3,3-3,3H117v7.4H122.6z M166.8,38.9l-6,26.8c-0.3,1.3-1.3,2.2-2.6,2.3c-1.3,0.1-2.5-0.6-3-1.8l-6.4-14.6l-6.5,14.6c-0.5,1.1-1.6,1.8-2.7,1.8c-0.1,0-0.2,0-0.3,0c-1.3-0.1-2.3-1.1-2.6-2.3l-5.8-26.8c-0.4-1.6,0.7-3.2,2.3-3.6c1.6-0.3,3.2,0.7,3.6,2.3l3.9,17.9L146,43c0.5-1.1,1.6-1.8,2.7-1.8c0,0,0,0,0,0c1.2,0,2.3,0.7,2.7,1.8l5.4,12.4l4-17.9c0.4-1.6,2-2.6,3.6-2.3C166.1,35.6,167.2,37.2,166.8,38.9z"/>
</svg>
